<?xml version="1.0" encoding="iso-8859-1"?>
<!-- Generator: Adobe Illustrator 19.0.0, SVG Export Plug-In . SVG Version: 6.00 Build 0)  -->
<svg version="1.1" id="Layer_1" xmlns="http://www.w3.org/2000/svg" xmlns:xlink="http://www.w3.org/1999/xlink" x="0px" y="0px"
	 viewBox="0 0 511.999 511.999" style="enable-background:new 0 0 511.999 511.999;" xml:space="preserve">
<path style="fill:#BBDCE3;" d="M451.113,59.355c-24.292,0-43.351,27.086-43.351,27.086S389.783,59.355,364.4,59.355
	c-24.69,0-44.851,20.364-46.171,45.02c-0.743,13.928,3.748,24.531,10.074,34.131c12.642,19.182,67.913,65.364,79.541,65.364
	c11.868,0,66.647-46.012,79.372-65.364c6.339-9.645,10.817-20.202,10.071-34.131C495.967,79.719,475.805,59.355,451.113,59.355"/>
<g>
	<path style="fill:#F0CA83;" d="M82.725,172.445c0.509,14.504,2.978,33.052,5.577,65.606c3.673,46,42.093,81.449,88.239,81.449l0,0
		c46.146,0,84.566-35.448,88.239-81.448c2.6-32.554,5.069-51.104,5.578-65.608L82.725,172.445L82.725,172.445z"/>
	<path style="fill:#F0CA83;" d="M243.615,370.935h-22.789l-9.931-58.38c-10.589,4.465-22.198,6.944-34.353,6.944l0,0
		c-12.155,0-23.764-2.48-34.351-6.944l-9.931,58.379h-22.789c-46.865,0-84.857,37.991-84.857,84.857v21.97h303.857v-21.97
		C328.471,408.928,290.48,370.935,243.615,370.935z"/>
</g>
<path style="fill:#DE5E88;" d="M280.34,76.397c-6.19-6.161-12.834-11.736-19.902-16.639c-23.546-16.39-51.789-25.521-83.896-25.521
	c-32.092,0-60.35,9.132-83.896,25.521c-7.829,5.444-15.146,11.692-21.907,18.687c-35.824,37.024-56.106,94.622-56.106,162.522
	c0,79.759,64.272,130.417,64.272,130.417h21.799c2.881-0.296,5.805-0.449,8.766-0.449h22.791l9.931-58.379
	c-29.613-12.483-51.182-40.621-53.888-74.505c-2.599-32.554-5.068-51.103-5.577-65.606h187.635
	c-0.509,14.504-2.979,33.052-5.578,65.608c-2.706,33.883-24.275,62.02-53.886,74.504l9.931,58.38h22.789
	c2.96,0,5.884,0.154,8.766,0.449h21.813c0,0,64.257-48.219,64.257-130.417C338.451,171.823,317.408,113.331,280.34,76.397z"/>
<path d="M511.899,103.593c-1.768-33.012-28.469-58.87-60.788-58.87c-18.289,0-33.419,10.406-43.246,19.64
	c-9.723-9.24-24.812-19.64-43.467-19.64c-26.031,0-48.406,16.782-57.054,40.561c-5.155-6.872-10.712-13.309-16.675-19.252
	c-0.001-0.001-0.004-0.004-0.006-0.006c-6.844-6.812-14.208-12.966-21.864-18.278c-26.83-18.676-57.868-28.144-92.256-28.144
	c-34.387,0-65.425,9.47-92.252,28.141c-8.558,5.952-16.658,12.859-24.068,20.525C21.387,108.406,0,169.739,0,240.968
	c0,63.777,36.95,109.849,57.135,130.262c-18.38,11.417-32.772,28.65-40.603,49.113c-0.263,0.582-0.496,1.181-0.682,1.8
	c-3.792,10.516-5.87,21.842-5.87,33.649v21.971c0,8.082,6.552,14.634,14.634,14.634h303.857c8.082,0,14.634-6.552,14.634-14.634
	v-21.971c0-35.563-18.769-66.811-46.91-84.405c20.357-20.075,56.891-65.188,56.891-130.418c0-21.499-1.954-42.062-5.725-61.415
	c4.005,3.566,7.999,6.989,11.763,10.103c34.865,28.848,44.573,28.848,48.719,28.848c4.196,0,14.024,0,48.712-28.799
	c15.446-12.824,34.823-30.894,42.889-43.158C505.301,137.634,512.966,123.486,511.899,103.593z M313.837,463.129H39.248v-7.337
	c0-5.076,0.555-10.023,1.582-14.796h154.68c8.082,0,14.634-6.552,14.634-14.634c0-8.082-6.552-14.634-14.634-14.634H54.849
	c11.463-14.18,28.312-23.834,47.415-25.791c2.39-0.243,4.815-0.367,7.207-0.367h22.788c7.135,0,13.23-5.147,14.426-12.18
	l7.108-41.785c0.306,0.069,0.616,0.116,0.922,0.181c1.302,0.281,2.611,0.541,3.926,0.773c0.569,0.1,1.139,0.192,1.709,0.281
	c1.242,0.196,2.489,0.369,3.74,0.52c0.539,0.064,1.076,0.133,1.616,0.189c1.414,0.148,2.833,0.262,4.257,0.353
	c0.361,0.023,0.723,0.057,1.086,0.076c1.825,0.097,3.654,0.158,5.492,0.158c1.835,0,3.663-0.061,5.485-0.157
	c0.376-0.019,0.749-0.056,1.125-0.079c1.408-0.089,2.811-0.202,4.209-0.348c0.555-0.059,1.106-0.127,1.659-0.195
	c1.235-0.149,2.464-0.319,3.689-0.512c0.584-0.092,1.168-0.186,1.75-0.288c1.302-0.228,2.596-0.487,3.885-0.764
	c0.315-0.069,0.634-0.116,0.947-0.186l7.108,41.785c1.196,7.034,7.291,12.18,14.426,12.18h22.789c2.393,0,4.817,0.124,7.207,0.367
	c35.348,3.62,63.016,33.567,63.016,69.855L313.837,463.129L313.837,463.129z M103.795,243.906c-0.181-1.017-0.334-2.044-0.473-3.076
	c-0.031-0.234-0.064-0.468-0.094-0.704c-0.135-1.074-0.252-2.153-0.338-3.24c-1.143-14.316-2.281-26.155-3.196-35.667
	c-0.508-5.277-0.956-9.936-1.324-14.141h156.345c-0.369,4.2-0.817,8.853-1.323,14.125c-0.8,8.327-1.774,18.433-2.77,30.428
	c-0.142,1.714-0.285,3.465-0.429,5.255c-0.086,1.09-0.205,2.17-0.339,3.246c-0.029,0.23-0.06,0.46-0.091,0.689
	c-0.14,1.04-0.294,2.077-0.477,3.102c0,0.003-0.001,0.006-0.001,0.009c-5.995,33.523-34.848,59.159-69.149,60.843
	c-1.194,0.057-2.391,0.089-3.594,0.089c-1.201,0-2.4-0.031-3.594-0.089c-34.3-1.683-63.149-27.316-69.148-60.837
	C103.799,243.93,103.798,243.918,103.795,243.906z M268.913,356.751h-15.812c-0.863-0.082-1.734-0.124-2.602-0.184
	c-0.66-0.045-1.316-0.108-1.979-0.14c-1.638-0.08-3.277-0.124-4.905-0.124h-10.434l-6.025-35.421
	c0.468-0.263,0.923-0.552,1.387-0.822c0.635-0.37,1.269-0.742,1.895-1.124c0.465-0.285,0.928-0.574,1.389-0.866
	c20.391-12.9,35.483-32.429,42.846-55.219c0.006-0.019,0.012-0.038,0.018-0.056c0.942-2.925,1.759-5.903,2.442-8.928
	c0.047-0.206,0.092-0.413,0.138-0.62c0.628-2.859,1.137-5.758,1.523-8.694c0.044-0.335,0.086-0.669,0.127-1.005
	c0.176-1.436,0.332-2.876,0.448-4.327c1.125-14.089,2.204-25.311,3.157-35.212c1.054-10.965,1.914-19.914,2.317-27.753
	c0.057-1.119,0.105-2.217,0.143-3.294c0.14-3.967-1.339-7.822-4.096-10.678c-2.757-2.857-6.557-4.469-10.528-4.469H82.725
	c-3.97,0-7.771,1.614-10.528,4.469c-2.757,2.857-4.236,6.71-4.096,10.678c0.303,8.622,1.254,18.525,2.46,31.062
	c0.951,9.897,2.03,21.114,3.155,35.196c0.116,1.452,0.272,2.893,0.448,4.329c0.041,0.335,0.083,0.67,0.127,1.004
	c0.386,2.934,0.896,5.833,1.523,8.693c0.045,0.208,0.092,0.416,0.139,0.622c0.683,3.023,1.499,6.001,2.441,8.925
	c0.006,0.021,0.013,0.041,0.019,0.061c7.362,22.789,22.454,42.317,42.843,55.218c0.462,0.294,0.926,0.582,1.392,0.869
	c0.622,0.38,1.253,0.751,1.885,1.118c0.467,0.274,0.925,0.563,1.396,0.828l-6.025,35.42h-10.432c-1.629,0-3.266,0.044-4.905,0.124
	c-0.663,0.032-1.319,0.095-1.978,0.14c-0.868,0.06-1.739,0.102-2.602,0.184H84.332c-12.809-11.603-55.064-54.533-55.064-115.784
	c0-63.594,18.464-117.699,51.994-152.353C87.36,82.306,94,76.639,101.007,71.767c21.829-15.193,47.242-22.898,75.535-22.898
	s53.708,7.705,75.556,22.912c6.265,4.345,12.292,9.388,17.919,14.987c34.694,34.574,53.8,89.337,53.8,154.2
	C323.818,303.857,281.521,345.683,268.913,356.751z M474.988,130.466c-10.31,15.676-53.534,51.957-67.111,58.241
	c-13.697-6.373-57.094-42.683-67.355-58.251c-5.855-8.887-8.153-16.453-7.68-25.298c0.919-17.186,15.077-31.169,31.558-31.169
	c14.173,0,27.329,14.867,31.169,20.544c2.662,4.011,7.143,6.435,11.956,6.516c4.869,0.085,9.376-2.23,12.174-6.146
	c4.156-5.817,17.9-20.915,31.413-20.915c16.484,0,30.64,13.983,31.561,31.169C483.152,114.101,480.925,121.433,474.988,130.466z"/>
<path d="M252.693,420.762c-0.366-0.878-0.819-1.727-1.346-2.517c-0.541-0.805-1.156-1.551-1.829-2.224
	c-0.673-0.673-1.419-1.288-2.224-1.829c-0.79-0.527-1.639-0.98-2.517-1.346c-0.893-0.366-1.815-0.644-2.737-0.834
	c-1.888-0.38-3.834-0.38-5.722,0c-0.937,0.19-1.858,0.468-2.737,0.834c-0.893,0.366-1.741,0.819-2.532,1.346
	c-0.805,0.541-1.551,1.156-2.224,1.829c-0.673,0.673-1.288,1.419-1.815,2.224c-0.527,0.79-0.98,1.639-1.346,2.517
	c-0.366,0.893-0.644,1.815-0.834,2.737c-0.19,0.951-0.293,1.902-0.293,2.868c0,0.951,0.102,1.917,0.293,2.854
	c0.19,0.937,0.468,1.858,0.834,2.737c0.366,0.893,0.819,1.741,1.346,2.532c0.527,0.805,1.141,1.551,1.815,2.224
	c0.673,0.673,1.419,1.288,2.224,1.815c0.79,0.527,1.639,0.98,2.532,1.346c0.878,0.366,1.8,0.644,2.737,0.834
	c0.937,0.19,1.902,0.293,2.854,0.293c0.951,0,1.917-0.102,2.868-0.293c0.922-0.19,1.844-0.468,2.737-0.834
	c0.878-0.366,1.727-0.819,2.517-1.346c0.805-0.527,1.551-1.141,2.224-1.815c0.673-0.673,1.288-1.419,1.829-2.224
	c0.527-0.79,0.98-1.639,1.346-2.532c0.366-0.878,0.644-1.8,0.834-2.737c0.19-0.937,0.278-1.902,0.278-2.854
	c0-0.966-0.088-1.917-0.278-2.868C253.337,422.562,253.059,421.655,252.693,420.762z"/>
<g>
</g>
<g>
</g>
<g>
</g>
<g>
</g>
<g>
</g>
<g>
</g>
<g>
</g>
<g>
</g>
<g>
</g>
<g>
</g>
<g>
</g>
<g>
</g>
<g>
</g>
<g>
</g>
<g>
</g>
</svg>
